<?xml version="1.0" encoding="UTF-8" standalone="no"?>
<!-- Created with Inkscape (http://www.inkscape.org/) -->

<svg
   xmlns:dc="http://purl.org/dc/elements/1.1/"
   xmlns:cc="http://creativecommons.org/ns#"
   xmlns:rdf="http://www.w3.org/1999/02/22-rdf-syntax-ns#"
   xmlns:svg="http://www.w3.org/2000/svg"
   xmlns="http://www.w3.org/2000/svg"
   xmlns:xlink="http://www.w3.org/1999/xlink"
   xmlns:sodipodi="http://sodipodi.sourceforge.net/DTD/sodipodi-0.dtd"
   xmlns:inkscape="http://www.inkscape.org/namespaces/inkscape"
   width="264.58334mm"
   height="280.2453mm"
   viewBox="0 0 264.58334 280.24529"
   version="1.1"
   id="svg8"
   inkscape:version="0.92.3 (2405546, 2018-03-11)"
   sodipodi:docname="favicon.svg">
  <defs
     id="defs2">
    <linearGradient
       id="linearGradient5642"
       inkscape:collect="always">
      <stop
         id="stop5638"
         offset="0"
         style="stop-color:#ff0000;stop-opacity:1" />
      <stop
         id="stop5640"
         offset="1"
         style="stop-color:#ff0066;stop-opacity:1" />
    </linearGradient>
    <linearGradient
       id="linearGradient5636"
       inkscape:collect="always">
      <stop
         id="stop5632"
         offset="0"
         style="stop-color:#ff0000;stop-opacity:1" />
      <stop
         id="stop5634"
         offset="1"
         style="stop-color:#aa0088;stop-opacity:1" />
    </linearGradient>
    <linearGradient
       id="linearGradient5630"
       inkscape:collect="always">
      <stop
         id="stop5626"
         offset="0"
         style="stop-color:#8800aa;stop-opacity:1" />
      <stop
         id="stop5628"
         offset="1"
         style="stop-color:#aa0000;stop-opacity:1" />
    </linearGradient>
    <linearGradient
       id="linearGradient5618"
       inkscape:collect="always">
      <stop
         id="stop5614"
         offset="0"
         style="stop-color:#0044aa;stop-opacity:1" />
      <stop
         id="stop5616"
         offset="1"
         style="stop-color:#aa00d4;stop-opacity:1" />
    </linearGradient>
    <linearGradient
       id="linearGradient5612"
       inkscape:collect="always">
      <stop
         id="stop5608"
         offset="0"
         style="stop-color:#008000;stop-opacity:1" />
      <stop
         id="stop5610"
         offset="1"
         style="stop-color:#0088aa;stop-opacity:1" />
    </linearGradient>
    <linearGradient
       id="linearGradient5606"
       inkscape:collect="always">
      <stop
         id="stop5602"
         offset="0"
         style="stop-color:#00aa88;stop-opacity:1" />
      <stop
         id="stop5604"
         offset="1"
         style="stop-color:#8800aa;stop-opacity:1" />
    </linearGradient>
    <linearGradient
       id="linearGradient5600"
       inkscape:collect="always">
      <stop
         id="stop5596"
         offset="0"
         style="stop-color:#5a2ca0;stop-opacity:1" />
      <stop
         id="stop5598"
         offset="1"
         style="stop-color:#aa0088;stop-opacity:1" />
    </linearGradient>
    <linearGradient
       id="linearGradient5594"
       inkscape:collect="always">
      <stop
         id="stop5590"
         offset="0"
         style="stop-color:#8800aa;stop-opacity:1" />
      <stop
         id="stop5592"
         offset="1"
         style="stop-color:#aa0088;stop-opacity:1" />
    </linearGradient>
    <linearGradient
       id="linearGradient5588"
       inkscape:collect="always">
      <stop
         id="stop5584"
         offset="0"
         style="stop-color:#00d400;stop-opacity:1;" />
      <stop
         id="stop5586"
         offset="1"
         style="stop-color:#d400aa;stop-opacity:1" />
    </linearGradient>
    <linearGradient
       inkscape:collect="always"
       id="linearGradient5508">
      <stop
         style="stop-color:#d4aa00;stop-opacity:1"
         offset="0"
         id="stop5504" />
      <stop
         style="stop-color:#ff0000;stop-opacity:1"
         offset="1"
         id="stop5506" />
    </linearGradient>
    <linearGradient
       inkscape:collect="always"
       xlink:href="#linearGradient5594"
       id="linearGradient5510"
       x1="1428.5481"
       y1="-42.972786"
       x2="1625.8429"
       y2="149.01869"
       gradientUnits="userSpaceOnUse" />
    <linearGradient
       inkscape:collect="always"
       xlink:href="#linearGradient5600"
       id="linearGradient5518"
       x1="1327.9087"
       y1="-30.895254"
       x2="1553.308"
       y2="145.00656"
       gradientUnits="userSpaceOnUse" />
    <linearGradient
       inkscape:collect="always"
       xlink:href="#linearGradient5588"
       id="linearGradient5526"
       x1="1358.6719"
       y1="-24.147625"
       x2="1557.4125"
       y2="183.43184"
       gradientUnits="userSpaceOnUse" />
    <linearGradient
       inkscape:collect="always"
       xlink:href="#linearGradient5606"
       id="linearGradient5534"
       x1="1162.014"
       y1="-28.598377"
       x2="1468.4639"
       y2="143.50116"
       gradientUnits="userSpaceOnUse" />
    <linearGradient
       inkscape:collect="always"
       xlink:href="#linearGradient5618"
       id="linearGradient5542"
       x1="1207.8619"
       y1="-59.207508"
       x2="1423.6857"
       y2="312.17966"
       gradientUnits="userSpaceOnUse" />
    <linearGradient
       inkscape:collect="always"
       xlink:href="#linearGradient5612"
       id="linearGradient5550"
       x1="969.83801"
       y1="-8.8361826"
       x2="1254.2306"
       y2="128.83174"
       gradientUnits="userSpaceOnUse" />
    <linearGradient
       inkscape:collect="always"
       xlink:href="#linearGradient5630"
       id="linearGradient5558"
       x1="1346.8997"
       y1="336.94025"
       x2="1454.6415"
       y2="610.85217"
       gradientUnits="userSpaceOnUse" />
    <linearGradient
       inkscape:collect="always"
       xlink:href="#linearGradient5636"
       id="linearGradient5566"
       x1="1124.5693"
       y1="353.7926"
       x2="1327.806"
       y2="463.33765"
       gradientUnits="userSpaceOnUse" />
    <linearGradient
       inkscape:collect="always"
       xlink:href="#linearGradient5642"
       id="linearGradient5574"
       x1="1079.6058"
       y1="395.14047"
       x2="1258.6093"
       y2="499.89764"
       gradientUnits="userSpaceOnUse" />
    <linearGradient
       inkscape:collect="always"
       xlink:href="#linearGradient5508"
       id="linearGradient5582"
       x1="1080.2157"
       y1="323.83588"
       x2="1250.7242"
       y2="497.87994"
       gradientUnits="userSpaceOnUse" />
  </defs>
  <sodipodi:namedview
     id="base"
     pagecolor="#ffffff"
     bordercolor="#666666"
     borderopacity="1.0"
     inkscape:pageopacity="0.0"
     inkscape:pageshadow="2"
     inkscape:zoom="0.2"
     inkscape:cx="-914.55444"
     inkscape:cy="368.8075"
     inkscape:document-units="px"
     inkscape:current-layer="layer1"
     showgrid="false"
     showborder="true"
     inkscape:snap-smooth-nodes="false"
     inkscape:window-width="1366"
     inkscape:window-height="703"
     inkscape:window-x="0"
     inkscape:window-y="0"
     inkscape:window-maximized="1"
     inkscape:object-nodes="false" />
  <metadata
     id="metadata5">
    <rdf:RDF>
      <cc:Work
         rdf:about="">
        <dc:format>image/svg+xml</dc:format>
        <dc:type
           rdf:resource="http://purl.org/dc/dcmitype/StillImage" />
        <dc:title />
      </cc:Work>
    </rdf:RDF>
  </metadata>
  <g
     inkscape:label="Camada 1"
     inkscape:groupmode="layer"
     id="layer1"
     transform="translate(-235.08213,564.54696)">
    <g
       id="g5662"
       transform="matrix(2.2124897,0,0,2.2124897,-285.03463,344.7128)"
       style="stroke-width:0.45197952">
      <path
         inkscape:connector-curvature="0"
         transform="matrix(0.26458334,0,0,0.26458334,-56.986379,-411.09907)"
         id="path5479"
         d="m 1445.1602,3.515625 a 95.893806,95.893799 0 0 1 9.2871,2.3710938 95.893788,95.89378 0 0 0 -0.01,-0.00391 95.893788,95.89378 0 0 0 -9.2773,-2.3671875 z"
         style="fill:#ff00ff;stroke:none;stroke-width:0.45197952;stroke-opacity:1" />
      <path
         inkscape:connector-curvature="0"
         transform="matrix(0.26458334,0,0,0.26458334,-56.986379,-411.09907)"
         id="path5477"
         d="m 1438.6523,2.53125 a 95.893806,95.893799 0 0 1 6.5079,0.984375 95.893788,95.89378 0 0 0 -0.012,-0.00391 95.893788,95.89378 0 0 0 -6.4961,-0.9804688 z"
         style="fill:#ff00ff;stroke:none;stroke-width:0.45197952;stroke-opacity:1" />
      <path
         inkscape:connector-curvature="0"
         transform="matrix(0.26458334,0,0,0.26458334,-56.986379,-411.09907)"
         id="path5475"
         d="m 1432.7148,3.671875 a 252,252 0 0 0 -0.1347,0.1796875 95.893806,95.893799 0 0 1 1.414,-0.4707031 155.36283,155.36283 0 0 0 -1.2753,0.2871094 252,252 0 0 0 0,0.00391 z"
         style="fill:#ff00ff;stroke:none;stroke-width:0.45197952;stroke-opacity:1" />
      <path
         inkscape:connector-curvature="0"
         id="path5469"
         transform="matrix(0.26458334,0,0,0.26458334,-56.986379,-411.09907)"
         d="m 1342.6094,246.9668 a 252,252 0 0 0 0.3789,1.14258 252,252 0 0 1 1.8242,8.13476 252,252 0 0 1 2.4668,10.98828 252,252 0 0 1 3.0371,25.00586 252,252 0 0 1 0.3945,11.12891 252,252 0 0 1 0.2364,6.69531 252,252 0 0 1 -1.2578,25.1582 252,252 0 0 1 -3.7618,24.90625 252,252 0 0 1 -3.1211,12.21289 l -0.2343,-0.11718 c 0,0 -0.038,0.66745 -0.1836,1.76367 a 252,252 0 0 1 -2.4063,9.41992 c -0.9262,2.53075 -2.1842,5.35711 -3.8886,8.33398 -0.8523,1.48844 -1.8152,3.01505 -2.9063,4.56055 -1.091,1.5455 -2.3087,3.10954 -3.668,4.67578 -1.3593,1.56624 -2.8604,3.13488 -4.5175,4.68555 -0.671,0.62793 -1.4858,1.23427 -2.209,1.85547 a 155.36284,155.36284 0 0 1 -0.2344,4.70312 155.36284,155.36284 0 0 1 -2.3203,15.35547 155.36284,155.36284 0 0 1 -3.8418,15.04688 155.36284,155.36284 0 0 1 -5.3262,14.58789 155.36284,155.36284 0 0 1 -5.5195,11.42968 155.36283,155.36283 0 0 0 14.0957,-6.30859 155.36283,155.36283 0 0 0 13.4707,-7.72851 155.36283,155.36283 0 0 0 12.6328,-9.03321 155.36283,155.36283 0 0 0 11.666,-10.25 155.36283,155.36283 0 0 0 0.8223,-0.88281 155.36283,155.36283 0 0 0 9.7637,-10.47852 155.36283,155.36283 0 0 0 0.3671,-0.48242 252,252 0 0 0 1.1075,-4.33789 252,252 0 0 0 3.7636,-24.90625 252,252 0 0 0 1.2598,-25.1582 252,252 0 0 0 -0.6309,-17.82422 252,252 0 0 0 -3.0351,-25.00781 252,252 0 0 0 -5.5176,-24.57617 252,252 0 0 0 -1.416,-4.25977 252,252 0 0 0 -6.5274,-19.64648 252,252 0 0 0 -10.289,-22.99024 252,252 0 0 0 -4.4746,-7.80273 z"
         style="fill:url(#linearGradient5558);fill-opacity:1;stroke:none;stroke-width:0.45197952;stroke-opacity:1" />
      <path
         inkscape:connector-curvature="0"
         transform="matrix(0.26458334,0,0,0.26458334,-56.986379,-411.09907)"
         id="path5494"
         d="m 1230.8359,63.568359 h 105.7032 1.8828 7.8164 a 252,252 0 0 0 -8.0391,22.021485 252,252 0 0 0 -6.2324,24.406246 252,252 0 0 0 -0.4551,3.00586 252,252 0 0 0 -3.1191,20.63867 252,252 0 0 1 16.5058,18.78907 252,252 0 0 1 14.6524,20.48828 252,252 0 0 1 12.5332,21.85156 252,252 0 0 1 10.289,22.99219 252,252 0 0 1 7.8575,23.64648 c -0.7208,-3.1157 -1.3176,-5.85559 -2.041,-8.95703 -6.4623,-27.70486 -12.6959,-53.50857 -12.7188,-53.60351 a 252,252 0 0 1 0,-0.0273 95.893793,95.893785 0 0 1 -0.012,-0.0156 95.893793,95.893785 0 0 1 -0.012,-0.0215 95.893785,95.893774 0 0 1 -3.0137,-9.07617 95.893785,95.893774 0 0 1 -2.0996,-9.35156 95.893785,95.893774 0 0 1 -1.1563,-9.51563 95.893785,95.893774 0 0 1 -0.2402,-6.7832 95.893785,95.893774 0 0 1 0.4805,-9.57422 95.893785,95.893774 0 0 1 1.4316,-9.47851 95.893785,95.893774 0 0 1 1.4766,-5.7793 95.893785,95.893774 0 0 1 0.8945,-3.50781 95.893785,95.893774 0 0 1 2.9453,-8.06446 95.893782,95.893774 0 0 1 0.3418,-0.93945 95.893782,95.893774 0 0 1 4.1699,-8.630859 95.893782,95.893774 0 0 1 5.0098,-8.171875 95.893782,95.893774 0 0 1 0.7461,-0.980468 95.893782,95.893774 0 0 1 5.0547,-6.650391 95.893782,95.893774 0 0 1 6.5332,-7.013672 95.893782,95.893774 0 0 1 7.2031,-6.326172 95.893782,95.893774 0 0 1 7.7969,-5.576172 95.893782,95.893774 0 0 1 1.5215,-0.873047 155.36284,155.36284 0 0 0 -10.1231,-11.523437 155.36284,155.36284 0 0 0 -11.3633,-10.585938 155.36284,155.36284 0 0 0 -12.3632,-9.398437 155.36284,155.36284 0 0 0 -13.2383,-8.117188 155.36284,155.36284 0 0 0 -7.8379,-3.785156 h -133.3867 -65.4219 a 155.36284,155.36284 0 0 1 0.9102,0.232422 155.36284,155.36284 0 0 1 14.5878,5.324219 155.36284,155.36284 0 0 1 13.9844,6.755859 155.36284,155.36284 0 0 1 13.2402,8.117188 155.36284,155.36284 0 0 1 12.3614,9.398437 155.36284,155.36284 0 0 1 11.3633,10.585938 155.36284,155.36284 0 0 1 3.58,4.074218 z"
         style="fill:url(#linearGradient5534);fill-opacity:1;stroke:none;stroke-width:0.45197952;stroke-opacity:1" />
      <path
         inkscape:connector-curvature="0"
         transform="matrix(0.26458334,0,0,0.26458334,-56.986379,-411.09907)"
         id="path5463"
         d="m 1230.8359,63.568359 a 155.36284,155.36284 0 0 0 -3.58,-4.074218 155.36284,155.36284 0 0 0 -11.3633,-10.585938 155.36284,155.36284 0 0 0 -12.3614,-9.398437 155.36284,155.36284 0 0 0 -13.2402,-8.117188 155.36284,155.36284 0 0 0 -13.9844,-6.755859 155.36284,155.36284 0 0 0 -14.5878,-5.324219 155.36284,155.36284 0 0 0 -0.9102,-0.232422 h -32.8164 l -20.6524,35.771484 -2.039,3.529297 -1.4199,2.460938 0.039,0.06836 20.1621,34.919922 h 3.5352 v -32.26172 h 23.2812 19.8653 32.5605 14.7774 z"
         style="fill:url(#linearGradient5550);fill-opacity:1;stroke:none;stroke-width:0.45197952;stroke-opacity:1" />
      <path
         inkscape:connector-curvature="0"
         transform="matrix(0.26458334,0,0,0.26458334,-56.986379,-411.09907)"
         id="path5429"
         d="m 1128.7051,421.8457 a 95.893806,95.893799 0 0 0 4.7441,1.21094 95.893806,95.893799 0 0 0 9.4766,1.43359 95.893806,95.893799 0 0 0 9.5742,0.47852 95.893806,95.893799 0 0 0 6.7832,-0.24023 95.893806,95.893799 0 0 0 9.5156,-1.1543 95.893806,95.893799 0 0 0 9.3535,-2.09961 95.893806,95.893799 0 0 0 9.0957,-3.02344 95.893806,95.893799 0 0 0 2.4649,-1.10351 155.36283,155.36283 0 0 1 -1.0391,-0.37891 155.36283,155.36283 0 0 1 -13.9843,-6.75586 155.36283,155.36283 0 0 1 -13.2383,-8.11719 155.36283,155.36283 0 0 1 -5.416,-4.11718 95.893791,95.89378 0 0 1 -0.5372,-0.61133 95.893791,95.89378 0 0 1 -5.5761,-7.79688 95.893791,95.89378 0 0 1 -4.7696,-8.31445 95.893791,95.89378 0 0 1 -3.916,-8.75 95.893791,95.89378 0 0 1 -3.0215,-9.0957 95.893791,95.89378 0 0 1 -2.0996,-9.35352 95.893791,95.89378 0 0 1 -1.1543,-9.51562 95.893791,95.89378 0 0 1 -0.084,-2.35352 36.424764,36.424764 0 0 0 1.4707,1.36914 36.424764,36.424764 0 0 0 2.8984,2.20313 36.424764,36.424764 0 0 0 3.1035,1.90234 36.424764,36.424764 0 0 0 3.2773,1.58398 36.424764,36.424764 0 0 0 3.4199,1.24805 36.424764,36.424764 0 0 0 3.5274,0.90234 36.424764,36.424764 0 0 0 3.5996,0.54297 36.424764,36.424764 0 0 0 3.6348,0.18164 36.424764,36.424764 0 0 0 2.5761,-0.0898 36.424764,36.424764 0 0 0 3.6133,-0.43945 36.424764,36.424764 0 0 0 3.5527,-0.79688 36.424764,36.424764 0 0 0 3.4551,-1.14844 36.424764,36.424764 0 0 0 3.3223,-1.48828 36.424764,36.424764 0 0 0 3.1582,-1.81054 36.424764,36.424764 0 0 0 2.961,-2.11914 36.424764,36.424764 0 0 0 2.7363,-2.40235 36.424764,36.424764 0 0 0 2.4805,-2.66406 36.424764,36.424764 0 0 0 2.2031,-2.89844 36.424764,36.424764 0 0 0 1.9023,-3.10351 36.424764,36.424764 0 0 0 1.582,-3.2793 36.424764,36.424764 0 0 0 1.248,-3.41992 36.424764,36.424764 0 0 0 0.9004,-3.52735 36.424764,36.424764 0 0 0 0.5449,-3.59961 36.424764,36.424764 0 0 0 0.1817,-3.63671 36.424764,36.424764 0 0 0 -0.092,-2.57618 36.424764,36.424764 0 0 0 -0.4375,-3.61523 36.424764,36.424764 0 0 0 -0.7988,-3.55274 36.424764,36.424764 0 0 0 -1.1465,-3.45507 36.424764,36.424764 0 0 0 -1.4883,-3.32227 36.424764,36.424764 0 0 0 -1.8106,-3.1582 36.424764,36.424764 0 0 0 -2.1191,-2.96094 36.424764,36.424764 0 0 0 0,-0.002 36.424764,36.424764 0 0 0 -2.4023,-2.73438 36.424764,36.424764 0 0 0 -2.6641,-2.48242 36.424764,36.424764 0 0 0 -2.8984,-2.20312 36.424764,36.424764 0 0 0 -3.1036,-1.9043 36.424764,36.424764 0 0 0 -3.2793,-1.58203 36.424764,36.424764 0 0 0 -3.4199,-1.25 36.424764,36.424764 0 0 0 -3.5273,-0.90039 36.424764,36.424764 0 0 0 -3.5996,-0.54493 36.424764,36.424764 0 0 0 -3.6347,-0.18164 36.424764,36.424764 0 0 0 -2.5782,0.0918 36.424764,36.424764 0 0 0 -2.2793,0.27734 95.893806,95.893799 0 0 0 -5.4004,3.09766 95.893806,95.893799 0 0 0 -7.7968,5.57617 95.893806,95.893799 0 0 0 -7.2012,6.32617 95.893806,95.893799 0 0 0 -6.5332,7.01368 95.893806,95.893799 0 0 0 -5.8008,7.63086 95.893806,95.893799 0 0 0 -5.0117,8.17187 95.893806,95.893799 0 0 0 -4.168,8.63086 95.893806,95.893799 0 0 0 -3.2871,9.00391 95.893806,95.893799 0 0 0 -2.3711,9.28711 95.893806,95.893799 0 0 0 -1.4336,9.47851 95.893806,95.893799 0 0 0 -0.4785,9.57227 95.893806,95.893799 0 0 0 0.2402,6.7832 95.893806,95.893799 0 0 0 1.1543,9.51563 95.893806,95.893799 0 0 0 2.0997,9.35351 95.893806,95.893799 0 0 0 1.7519,5.26953 155.36283,155.36283 0 0 0 7.7207,13.46094 155.36283,155.36283 0 0 0 9.0332,12.63281 155.36283,155.36283 0 0 0 1.2305,1.40039 z"
         style="fill:url(#linearGradient5582);fill-opacity:1;stroke:none;stroke-width:0.45197952;stroke-opacity:1" />
      <path
         inkscape:connector-curvature="0"
         transform="matrix(0.26458334,0,0,0.26458334,-56.986379,-411.09907)"
         id="path5425"
         d="m 1202.3848,471.97461 a 155.36284,155.36284 0 0 0 10.414,-11.17773 155.36284,155.36284 0 0 0 9.3985,-12.36329 155.36284,155.36284 0 0 0 8.1172,-13.24023 155.36284,155.36284 0 0 0 3.2617,-6.75 155.36283,155.36283 0 0 1 -15.2676,-2.30859 155.36283,155.36283 0 0 1 -15.0469,-3.8418 155.36283,155.36283 0 0 1 -13.5488,-4.94531 95.893806,95.893799 0 0 1 -2.4649,1.10351 95.893806,95.893799 0 0 1 -9.0957,3.02344 95.893806,95.893799 0 0 1 -9.3535,2.09961 95.893806,95.893799 0 0 1 -9.5156,1.1543 95.893806,95.893799 0 0 1 -6.7832,0.24023 95.893806,95.893799 0 0 1 -9.5742,-0.47852 95.893806,95.893799 0 0 1 -9.4766,-1.43359 95.893806,95.893799 0 0 1 -4.7441,-1.21094 155.36283,155.36283 0 0 0 9.0176,10.26758 155.36283,155.36283 0 0 0 11.3633,10.58594 155.36283,155.36283 0 0 0 6.6328,5.04297 155.36283,155.36283 0 0 0 5.7305,4.35547 155.36283,155.36283 0 0 0 13.2383,8.11718 155.36283,155.36283 0 0 0 13.9843,6.75391 155.36283,155.36283 0 0 0 13.711,5.00586 z"
         style="fill:url(#linearGradient5574);fill-opacity:1;stroke:none;stroke-width:0.45197952;stroke-opacity:1" />
      <path
         inkscape:connector-curvature="0"
         transform="matrix(0.26458334,0,0,0.26458334,-56.986379,-411.09907)"
         id="path5421"
         d="m 1305.5488,468.64062 a 155.36284,155.36284 0 0 0 5.5196,-11.42968 155.36284,155.36284 0 0 0 5.3261,-14.58789 155.36284,155.36284 0 0 0 3.8418,-15.04688 155.36284,155.36284 0 0 0 2.3203,-15.35547 155.36284,155.36284 0 0 0 0.2344,-4.70312 c -1.0628,0.91284 -2.0653,1.8347 -3.2461,2.72656 -1.9842,1.49878 -4.1395,2.96247 -6.4804,4.37305 -2.341,1.41058 -4.8667,2.76863 -7.5938,4.05469 a 155.36283,155.36283 0 0 1 -14.7363,4.89648 155.36283,155.36283 0 0 1 -15.1543,3.40234 155.36283,155.36283 0 0 1 -2.8321,0.34375 155.36283,155.36283 0 0 1 -5.9609,0.72266 155.36283,155.36283 0 0 1 -6.5371,0.79492 155.36283,155.36283 0 0 1 -0.086,0.0117 155.36283,155.36283 0 0 1 -10.9883,0.38867 155.36283,155.36283 0 0 1 -15.5117,-0.77539 155.36283,155.36283 0 0 1 -0.088,-0.0137 155.36284,155.36284 0 0 1 -3.2617,6.75 155.36284,155.36284 0 0 1 -8.1172,13.24023 155.36284,155.36284 0 0 1 -9.3985,12.36329 155.36284,155.36284 0 0 1 -10.414,11.17773 155.36283,155.36283 0 0 0 0.8769,0.32031 155.36283,155.36283 0 0 0 15.0469,3.8418 155.36283,155.36283 0 0 0 15.3555,2.32031 155.36283,155.36283 0 0 0 15.5097,0.77735 155.36283,155.36283 0 0 0 10.9883,-0.39063 155.36283,155.36283 0 0 0 15.416,-1.87109 155.36283,155.36283 0 0 0 14.9863,-3.36328 155.36283,155.36283 0 0 0 0.168,-0.0371 155.36283,155.36283 0 0 0 14.7363,-4.89649 155.36283,155.36283 0 0 0 0.078,-0.0352 z"
         style="fill:url(#linearGradient5566);fill-opacity:1;stroke:none;stroke-width:0.45197952;stroke-opacity:1" />
      <path
         inkscape:connector-curvature="0"
         id="path5413"
         transform="matrix(0.26458334,0,0,0.26458334,-56.986379,-411.09907)"
         d="m 1328.3926,133.64062 a 252,252 0 0 0 -0.021,0.14844 252,252 0 0 0 -0.166,1.11328 252,252 0 0 0 -0.2598,5.25 252,252 0 0 0 -0.9961,19.90821 252,252 0 0 0 0.6309,17.82422 252,252 0 0 0 1.5781,13.01171 252,252 0 0 0 1.4551,11.99414 252,252 0 0 0 4.291,19.12305 252,252 0 0 0 1.2246,5.45508 252,252 0 0 0 6.4805,19.49805 252,252 0 0 1 4.4746,7.80273 252,252 0 0 1 10.289,22.99024 252,252 0 0 1 6.5274,19.64648 252,252 0 0 1 1.416,4.25977 252,252 0 0 1 5.5176,24.57617 252,252 0 0 1 3.0351,25.00781 252,252 0 0 1 0.6309,17.82422 252,252 0 0 1 -1.2598,25.1582 252,252 0 0 1 -3.7636,24.90625 252,252 0 0 1 -1.1075,4.33789 155.36283,155.36283 0 0 0 9.0313,-11.88086 155.36283,155.36283 0 0 0 0.4141,-0.67578 155.36283,155.36283 0 0 0 7.7031,-12.56445 155.36283,155.36283 0 0 0 6.7539,-13.98438 155.36283,155.36283 0 0 0 5.3242,-14.58789 155.36283,155.36283 0 0 0 3.8418,-15.04687 155.36283,155.36283 0 0 0 2.1289,-14.07813 155.36283,155.36283 0 0 0 0.1934,-1.27734 155.36283,155.36283 0 0 0 0.7754,-15.50977 155.36283,155.36283 0 0 0 -0.3887,-10.99023 155.36283,155.36283 0 0 0 -1.7012,-14.02344 155.36283,155.36283 0 0 1 -0.1113,-0.0547 155.36283,155.36283 0 0 0 0,-0.002 155.36283,155.36283 0 0 0 0,-0.002 155.36283,155.36283 0 0 0 0.059,-0.375 155.36283,155.36283 0 0 1 0,-0.002 155.36283,155.36283 0 0 0 0,-0.002 155.36283,155.36283 0 0 0 -0.1172,-0.95703 c -0.4413,-3.63578 -2.316,-12.71533 -4.6934,-23.61133 a 155.36284,155.36284 0 0 0 0,-0.002 c -0.1402,-0.64269 -0.1327,-0.73387 -0.2774,-1.39258 -1.4855,-6.76506 -3.4171,-15.03848 -5.2148,-22.88281 -0.6415,-2.79937 -1.2042,-5.32543 -1.8613,-8.16602 a 252,252 0 0 0 -7.8575,-23.64648 252,252 0 0 0 -10.289,-22.99219 252,252 0 0 0 -12.5332,-21.85156 252,252 0 0 0 -14.6524,-20.48828 252,252 0 0 0 -16.5058,-18.78907 z"
         style="fill:url(#linearGradient5542);fill-opacity:1;stroke:none;stroke-width:0.45197952;stroke-opacity:1" />
      <path
         inkscape:connector-curvature="0"
         transform="matrix(0.26458334,0,0,0.26458334,-56.986379,-411.09907)"
         id="path5409"
         d="m 1402.3945,298.42969 a 155.36283,155.36283 0 0 1 -0.059,0.37109 155.36283,155.36283 0 0 0 0.1094,0.0508 155.36283,155.36283 0 0 0 -0.051,-0.42187 z"
         style="fill:#ff00ff;stroke:none;stroke-width:0.45197952;stroke-opacity:1" />
      <path
         inkscape:connector-curvature="0"
         transform="matrix(0.26458334,0,0,0.26458334,-56.986379,-411.09907)"
         id="path5407"
         d="m 1402.3945,298.42383 a 155.36283,155.36283 0 0 0 0,-0.004 155.36283,155.36283 0 0 1 -0.059,0.37891 155.36283,155.36283 0 0 0 0,0.002 155.36283,155.36283 0 0 0 0.059,-0.37109 155.36283,155.36283 0 0 0 0,-0.006 z"
         style="fill:#ff00ff;stroke:none;stroke-width:0.45197952;stroke-opacity:1" />
      <path
         inkscape:connector-curvature="0"
         transform="matrix(0.26458334,0,0,0.26458334,-56.986379,-411.09907)"
         id="path5399"
         d="m 1390.2305,241.4082 c 0.6571,2.84059 1.2198,5.36665 1.8613,8.16602 a 252,252 0 0 0 -1.7754,-7.9082 252,252 0 0 0 -0.086,-0.25782 z"
         style="fill:#ff00ff;stroke:none;stroke-width:0.45197952;stroke-opacity:1" />
      <path
         inkscape:connector-curvature="0"
         transform="matrix(0.26458334,0,0,0.26458334,-56.986379,-411.09907)"
         id="path5397"
         d="m 1375.4707,178.82031 a 252,252 0 0 1 0,-0.0254 95.893806,95.893799 0 0 1 -0.016,-0.0117 95.893806,95.893799 0 0 0 0.01,0.0234 95.893806,95.893799 0 0 0 0.01,0.0137 z"
         style="fill:#ff00ff;stroke:none;stroke-width:0.45197952;stroke-opacity:1" />
      <path
         inkscape:connector-curvature="0"
         transform="matrix(0.26458334,0,0,0.26458334,-56.986379,-411.09907)"
         id="path5391"
         d="m 1463.4414,9.1699219 a 95.893806,95.893799 0 0 0 -8.9922,-3.2832031 95.893806,95.893799 0 0 0 -9.2871,-2.3710938 95.893806,95.893799 0 0 0 -6.5079,-0.984375 155.36283,155.36283 0 0 0 -0.01,0 95.893788,95.89378 0 0 0 0,-0.00195 v 0.00586 a 155.36283,155.36283 0 0 0 -1.8809,0.2285157 155.36283,155.36283 0 0 0 -2.7715,0.6210937 95.893788,95.89378 0 0 0 -1.414,0.4707032 252,252 0 0 1 0,-0.00391 252,252 0 0 1 0.1347,-0.1796875 155.36283,155.36283 0 0 0 -11.1054,2.4921875 155.36283,155.36283 0 0 0 -14.7364,4.8984374 155.36283,155.36283 0 0 0 -14.1738,6.34375 155.36283,155.36283 0 0 0 -2.918,1.673828 h -15.5449 -3.1133 a 95.89378,95.893776 0 0 0 -1.7227,1.232422 252,252 0 0 1 0.7559,-1.232422 h -10.5371 a 155.36284,155.36284 0 0 1 7.8379,3.785156 155.36284,155.36284 0 0 1 13.2383,8.117188 155.36284,155.36284 0 0 1 12.3632,9.398437 155.36284,155.36284 0 0 1 11.3633,10.585938 155.36284,155.36284 0 0 1 10.1231,11.523437 95.893788,95.89378 0 0 1 6.7929,-3.896484 95.893788,95.89378 0 0 1 8.7481,-3.914062 95.893788,95.89378 0 0 1 9.0976,-3.023438 95.893788,95.89378 0 0 1 9.3516,-2.099609 95.893788,95.89378 0 0 1 9.5156,-1.154297 95.893788,95.89378 0 0 1 6.7832,-0.240235 95.893788,95.89378 0 0 1 9.5742,0.478516 95.893788,95.89378 0 0 1 9.4766,1.433594 95.893788,95.89378 0 0 1 9.2871,2.371093 95.893788,95.89378 0 0 1 9.0059,3.285157 95.893788,95.89378 0 0 1 0,0.002 95.893788,95.89378 0 0 1 8.6308,4.167969 95.893788,95.89378 0 0 1 4.6778,2.86914 95.893788,95.89378 0 0 0 -0.01,-0.02344 95.893788,95.89378 0 0 0 -3.918,-8.748047 95.893788,95.89378 0 0 0 -4.7656,-8.314453 95.893788,95.89378 0 0 0 -5.5762,-7.796875 95.893788,95.89378 0 0 0 -6.3261,-7.201172 95.893788,95.89378 0 0 0 -7.0137,-6.533203 95.893788,95.89378 0 0 0 0,-0.002 95.893788,95.89378 0 0 0 -7.6309,-5.800782 95.893788,95.89378 0 0 0 -8.1718,-5.009765 95.893788,95.89378 0 0 0 -8.6309,-4.169922 z"
         style="fill:url(#linearGradient5518);fill-opacity:1;stroke:none;stroke-width:0.45197952;stroke-opacity:1" />
      <path
         inkscape:connector-curvature="0"
         transform="matrix(0.26458334,0,0,0.26458334,-56.986379,-411.09907)"
         id="path5389"
         d="m 1525.6934,131.36523 a 95.893803,95.893795 0 0 1 -5.9746,5.24805 95.893803,95.893795 0 0 1 -2.9434,2.10352 21.557523,21.557523 0 0 0 1.0058,-0.44922 21.557523,21.557523 0 0 0 1.8692,-1.07227 21.557523,21.557523 0 0 0 1.7539,-1.25195 21.557523,21.557523 0 0 0 1.6172,-1.42188 21.557523,21.557523 0 0 0 0,-0.002 21.557523,21.557523 0 0 0 1.4688,-1.57617 21.557523,21.557523 0 0 0 1.2012,-1.57813 z"
         style="fill:#ff00ff;stroke:none;stroke-width:0.45197952;stroke-opacity:1" />
      <path
         inkscape:connector-curvature="0"
         transform="matrix(0.26458334,0,0,0.26458334,-56.986379,-411.09907)"
         id="path5387"
         d="m 1533.6309,77.246094 a 95.893806,95.893799 0 0 0 -7.0118,-6.533203 95.893806,95.893799 0 0 0 -7.6289,-5.800782 95.893806,95.893799 0 0 0 -3.4922,-2.142578 95.893803,95.893795 0 0 1 3.0176,9.078125 95.893803,95.893795 0 0 1 2.0996,9.351563 95.893803,95.893795 0 0 1 1.1543,9.515625 95.893803,95.893795 0 0 1 0.2402,6.783203 95.893803,95.893795 0 0 1 -0.248,4.966793 21.557523,21.557523 0 0 0 -1.5801,-1.20117 21.557523,21.557523 0 0 0 -1.836,-1.12695 21.557523,21.557523 0 0 0 -1.9414,-0.937501 21.557523,21.557523 0 0 0 -2.0234,-0.738281 21.557523,21.557523 0 0 0 -2.0879,-0.533204 21.557523,21.557523 0 0 0 -2.1309,-0.322265 21.557523,21.557523 0 0 0 -2.1523,-0.107422 21.557523,21.557523 0 0 0 -1.5254,0.05469 21.557523,21.557523 0 0 0 -2.1387,0.259766 21.557523,21.557523 0 0 0 -2.1035,0.470703 21.557523,21.557523 0 0 0 -2.0449,0.679688 21.557523,21.557523 0 0 0 -1.9668,0.880859 21.557523,21.557523 0 0 0 -1.8691,1.072267 21.557523,21.557523 0 0 0 -1.752,1.2539 21.557523,21.557523 0 0 0 -1.6191,1.42188 21.557523,21.557523 0 0 0 -1.4688,1.57617 21.557523,21.557523 0 0 0 -1.3047,1.71484 21.557523,21.557523 0 0 0 -1.125,1.83789 21.557523,21.557523 0 0 0 -0.9375,1.93946 21.557523,21.557523 0 0 0 -0.7402,2.02343 21.557523,21.557523 0 0 0 0,0.002 21.557523,21.557523 0 0 0 -0.5332,2.08789 21.557523,21.557523 0 0 0 -0.3203,2.13086 21.557523,21.557523 0 0 0 -0.1094,2.15234 21.557523,21.557523 0 0 0 0.055,1.52344 21.557523,21.557523 0 0 0 0.2598,2.13867 21.557523,21.557523 0 0 0 0,0.002 21.557523,21.557523 0 0 0 0.4726,2.10157 21.557523,21.557523 0 0 0 0.6797,2.04492 21.557523,21.557523 0 0 0 0.8789,1.96679 21.557523,21.557523 0 0 0 1.0723,1.86914 21.557523,21.557523 0 0 0 1.2539,1.75391 21.557523,21.557523 0 0 0 1.4219,1.61719 21.557523,21.557523 0 0 0 1.5761,1.4707 21.557523,21.557523 0 0 0 1.7168,1.30274 21.557523,21.557523 0 0 0 1.836,1.12695 21.557523,21.557523 0 0 0 1.9394,0.9375 21.557523,21.557523 0 0 0 2.0234,0.73828 21.557523,21.557523 0 0 0 2.0879,0.5332 21.557523,21.557523 0 0 0 2.1309,0.32227 21.557523,21.557523 0 0 0 2.1523,0.10742 21.557523,21.557523 0 0 0 1.5254,-0.0547 21.557523,21.557523 0 0 0 2.1387,-0.25976 21.557523,21.557523 0 0 0 0.1465,-0.0332 21.557523,21.557523 0 0 0 1.955,-0.4375 21.557523,21.557523 0 0 0 2.045,-0.67968 21.557523,21.557523 0 0 0 0.9609,-0.43164 95.893803,95.893795 0 0 0 2.9434,-2.10352 95.893803,95.893795 0 0 0 5.9746,-5.24805 95.893803,95.893795 0 0 0 1.2265,-1.07812 95.893803,95.893795 0 0 0 6.5332,-7.01367 95.893803,95.893795 0 0 0 5.8008,-7.63086 95.893803,95.893795 0 0 0 5.0117,-8.16992 95.893803,95.893795 0 0 0 4.168,-8.632813 95.893803,95.893795 0 0 0 0.3418,-0.939453 95.893803,95.893795 0 0 0 -3.2442,-5.65625 95.893803,95.893795 0 0 0 -5.5742,-7.796875 95.893803,95.893795 0 0 0 -6.3261,-7.201172 z"
         style="fill:url(#linearGradient5526);fill-opacity:1;stroke:none;stroke-width:0.45197952;stroke-opacity:1" />
      <path
         inkscape:connector-curvature="0"
         transform="matrix(0.26458334,0,0,0.26458334,-56.986379,-411.09907)"
         id="path5385"
         d="m 1463.1719,0.5 a 155.36283,155.36283 0 0 0 -10.9883,0.38867188 155.36283,155.36283 0 0 0 -13.5313,1.64257812 95.893788,95.89378 0 0 1 6.4961,0.9804688 95.893788,95.89378 0 0 1 0.012,0.00391 95.893788,95.89378 0 0 1 9.2773,2.3671875 95.893788,95.89378 0 0 1 0.01,0.00391 95.893806,95.893799 0 0 1 8.9922,3.2832031 95.893806,95.893799 0 0 1 0.012,0.00391 95.893806,95.893799 0 0 1 8.6309,4.1699216 95.893806,95.893799 0 0 1 8.1719,5.009766 95.893806,95.893799 0 0 1 7.6308,5.800781 95.893806,95.893799 0 0 1 7.0117,6.535156 95.893806,95.893799 0 0 1 6.3262,7.201172 95.893806,95.893799 0 0 1 5.5761,7.796875 95.893806,95.893799 0 0 1 4.7676,8.314453 95.893806,95.893799 0 0 1 3.916,8.748047 95.893806,95.893799 0 0 1 0.01,0.01953 95.893806,95.893799 0 0 1 3.4922,2.142578 95.893806,95.893799 0 0 1 7.6289,5.800782 95.893806,95.893799 0 0 1 7.0118,6.533203 95.893806,95.893799 0 0 1 6.3262,7.201172 95.893806,95.893799 0 0 1 5.5742,7.796875 95.893806,95.893799 0 0 1 3.2441,5.65625 95.893806,95.893799 0 0 0 2.9454,-8.064453 95.893806,95.893799 0 0 0 2.3711,-9.28711 95.893806,95.893799 0 0 0 1.4335,-9.478516 95.893806,95.893799 0 0 0 0.3399,-6.802734 v 0 a 95.893806,95.893799 0 0 0 -1.6484,-4.960937 95.893806,95.893799 0 0 0 -3.916,-8.748047 95.893806,95.893799 0 0 0 -4.7696,-8.314453 95.893806,95.893799 0 0 0 -5.5742,-7.796875 95.893806,95.893799 0 0 0 -6.3261,-7.201172 95.893806,95.893799 0 0 0 -7.0137,-6.535156 95.893806,95.893799 0 0 0 -7.6309,-5.800782 95.893806,95.893799 0 0 0 -8.1718,-5.0097651 95.893806,95.893799 0 0 0 -8.6309,-4.1699218 95.893806,95.893799 0 0 0 -0.5059,-0.1835938 155.36283,155.36283 0 0 0 -7.6386,-1.9511719 A 155.36283,155.36283 0 0 0 1478.6836,1.2753906 155.36283,155.36283 0 0 0 1463.1719,0.5 Z"
         style="fill:url(#linearGradient5510);fill-opacity:1;stroke:none;stroke-width:0.45197952;stroke-opacity:1" />
    </g>
  </g>
</svg>
