<?xml version="1.0" encoding="UTF-8" standalone="no"?>
<svg
   xmlns:dc="http://purl.org/dc/elements/1.1/"
   xmlns:cc="http://creativecommons.org/ns#"
   xmlns:rdf="http://www.w3.org/1999/02/22-rdf-syntax-ns#"
   xmlns:svg="http://www.w3.org/2000/svg"
   xmlns="http://www.w3.org/2000/svg"
   xmlns:sodipodi="http://sodipodi.sourceforge.net/DTD/sodipodi-0.dtd"
   xmlns:inkscape="http://www.inkscape.org/namespaces/inkscape"
   sodipodi:docname="j5r.svg"
   inkscape:version="1.0 (4035a4fb49, 2020-05-01)"
   id="svg8"
   version="1.1"
   viewBox="0 0 348.49445 299.49573"
   height="299.49573mm"
   width="348.49445mm">
  <defs
     id="defs2" />
  <sodipodi:namedview
     inkscape:snap-nodes="false"
     inkscape:object-paths="false"
     inkscape:snap-bbox="false"
     inkscape:window-maximized="1"
     inkscape:window-y="29"
     inkscape:window-x="0"
     inkscape:window-height="702"
     inkscape:window-width="1366"
     showgrid="false"
     inkscape:document-rotation="0"
     inkscape:current-layer="layer1"
     inkscape:document-units="mm"
     inkscape:cy="565.97617"
     inkscape:cx="658.57216"
     inkscape:zoom="0.43641413"
     inkscape:pageshadow="2"
     inkscape:pageopacity="0.0"
     borderopacity="1.0"
     bordercolor="#666666"
     pagecolor="#ffffff"
     id="base">
    <inkscape:grid
       originy="112.219"
       originx="1262.0856"
       id="grid10"
       type="xygrid" />
    <inkscape:grid
       originy="112.219"
       originx="1262.0856"
       id="grid12"
       type="xygrid" />
  </sodipodi:namedview>
  <metadata
     id="metadata5">
    <rdf:RDF>
      <cc:Work
         rdf:about="">
        <dc:format>image/svg+xml</dc:format>
        <dc:type
           rdf:resource="http://purl.org/dc/dcmitype/StillImage" />
        <dc:title></dc:title>
      </cc:Work>
    </rdf:RDF>
  </metadata>
  <g
     transform="translate(1262.0856,112.219)"
     id="layer1"
     inkscape:groupmode="layer"
     inkscape:label="Layer 1">
    <g
       id="g2536">
      <path
         d="m -1157.5076,123.27672 h 240.77061 c 0,0 -5.29168,26.45833 -26.45834,26.45833 h -193.14557 c -10.5834,15.875 -10.5834,37.04167 -89.9584,37.04167 36.7832,-16.1711 58.2084,-37.04167 68.7917,-63.5 z m 153.4583,-232.83333 -26.4583,21.166651 c 31.74991,15.875 26.0624,58.765582 21.1667,79.3749984 -9.531,40.1220886 -47.3293,77.4259626 -84.6667,105.8333326 h 100.54144 c 11.083,-39.457669 13.3455,-74.138321 15.875,-132.291665 0.81714,-18.786295 9.42607,-28.922085 21.20696,-30.450337 0.68678,11.164086 9.94119,19.866814 21.12637,19.867004 11.69003,0 21.16667,-9.476639 21.16667,-21.166666 2e-5,-0.0049 0,-0.01109 0,-0.01603 0,-0.966007 -0.0678,-1.930821 -0.2005,-2.887678 -0.99968,-7.88531 -6.30643,-24.087024 -28.00657,-25.196395 -11.06811,-2.195229 -28.74479,5.967388 -40.5846,22.80844 -7.07546,-23.017179 -14.13075,-35.260355 -21.16647,-37.041655 z m -148.1666,0 v 26.458318 52.916666 h 26.4583 c 84.6667,-5.291667 42.3333,63.499999 -26.4583,126.999998 l 31.75,3e-6 c 52.9166,-47.625 74.0833,-79.374999 79.375,-95.2500029 15.875,-58.2083341 -21.1667,-58.2083311 -84.6667,-58.2083311 v -26.458333 l 74.0833,-5.291667 26.4584,-21.166651 h -100.5417 z m -41.8039,15.874985 a 15.875,15.875 0 0 1 -15.875,15.875 15.875,15.875 0 0 1 -15.875,-15.875 15.875,15.875 0 0 1 15.875,-15.874985 15.875,15.875 0 0 1 15.875,15.874985 z m -44.9791,37.041666 v 37.041666 c 15.0941,-10.869782 26.1266,-14.036654 39.6875,-15.875 V 65.068368 c -10e-5,31.75001 -10.5834,79.375022 -58.2084,121.708352 58.2084,-31.75 84.6667,-58.20833 84.6667,-121.708352 V -35.473293 -56.639959 h -26.4583 z"
         style="fill:#161650;fill-opacity:1;stroke:#000000;stroke-width:1;stroke-linecap:butt;stroke-linejoin:miter;stroke-miterlimit:4;stroke-dasharray:none;stroke-opacity:1"
         id="path114" />
      <path
         id="path65"
         style="fill:#2a2aff;fill-opacity:1;stroke:#000000;stroke-width:1;stroke-linecap:butt;stroke-linejoin:miter;stroke-miterlimit:4;stroke-dasharray:none;stroke-opacity:1"
         d="m -1161.7412,121.16004 h 240.77085 c 0,0 -5.29168,26.45833 -26.45834,26.45833 h -193.14581 c -10.5834,15.875 -10.5834,37.04167 -89.9584,37.04167 36.7832,-16.1711 58.2084,-37.04167 68.7917,-63.5 z m 153.4583,-232.83333 -26.4583,21.166663 c 31.75,15.875 26.0624,58.765582 21.1667,79.374999 -9.531,40.122088 -47.3293,77.425962 -84.6667,105.833332 h 100.54168 c 11.083,-39.457669 13.3455,-74.138321 15.875,-132.291665 0.81714,-18.786295 9.42607,-28.922085 21.20696,-30.450337 0.68678,11.164086 9.94119,19.866814 21.12637,19.867004 11.69003,0 21.16667,-9.476639 21.16667,-21.166666 2e-5,-0.0049 0,-0.01109 0,-0.01603 0,-0.966007 -0.0678,-1.930821 -0.2005,-2.887678 -0.99968,-7.88531 -6.30643,-24.087024 -28.00657,-25.196395 -11.06811,-2.195229 -28.74479,5.967388 -40.5846,22.80844 -7.07546,-23.017179 -14.13081,-35.260367 -21.16671,-37.041667 z m -148.1666,0 v 26.45833 52.916666 h 26.4583 c 84.6667,-5.291667 42.3333,63.499999 -26.4583,126.999998 l 31.75,3e-6 c 52.9166,-47.625 74.0833,-79.374999 79.375,-95.2500016 15.875,-58.2083354 -21.1667,-58.2083324 -84.6667,-58.2083324 V -85.21496 l 74.0833,-5.291667 26.4584,-21.166663 h -100.5417 z m -41.8039,15.874997 a 15.875,15.875 0 0 1 -15.875,15.875 15.875,15.875 0 0 1 -15.875,-15.875 15.875,15.875 0 0 1 15.875,-15.874997 15.875,15.875 0 0 1 15.875,15.874997 z m -44.9791,37.041666 v 37.041666 c 15.0941,-10.869782 26.1266,-14.036654 39.6875,-15.875 V 62.9517 c -10e-5,31.75001 -10.5834,79.37501 -58.2084,121.70834 58.2084,-31.75 84.6667,-58.20833 84.6667,-121.70834 V -37.589961 -58.756627 h -26.4583 z" />
      <path
         d="m -512.81836,-99.826172 c -6.21914,0 -11.87695,5.657808 -11.87695,11.876953 0,6.219145 5.65781,11.876953 11.87695,11.876953 6.21915,0 11.87695,-5.657808 11.87695,-11.876953 0,-6.219145 -5.6578,-11.876953 -11.87695,-11.876953 z m 61.67578,0 v 22.460938 48.917968 h 22.46094 l -0.25,0.0078 c 21.68411,-1.355257 36.07127,1.779267 44.30078,9.810547 4.11476,4.01564 6.38855,9.2598528 6.9043,14.9335935 0.51575,5.6737407 -0.5876,11.7855045 -2.86719,18.2734375 -8.46057,24.079621 -33.34105,54.219788 -64.5332,83.974609 h 20.16406 c 51.69186,-46.716748 72.32244,-78.144808 77.11914,-92.4296871 3.83139,-14.1019977 4.30531,-24.3224989 2.36914,-31.4218749 -1.9423,-7.121864 -6.00031,-11.458395 -12.83398,-14.726563 -13.66735,-6.536336 -38.62302,-6.882812 -70.37305,-6.882812 a 3.9977085,3.9977085 0 0 1 -3.99805,-3.998047 v -26.458984 a 3.9977085,3.9977085 0 0 1 3.71289,-3.986328 l 72.84375,-5.203126 16.58594,-13.271484 h -89.14453 z m 144.75977,0.648438 -20.05469,16.046875 c 13.49272,9.08764 19.48229,23.550604 21.29688,37.884765 2.03506,16.075853 -0.72482,32.316007 -3.23633,42.8886721 -9.15046,38.5203089 -42.48319,73.2818859 -77.05469,100.9101559 h 85.94336 C -289.231,60.745425 -286.974,26.7389 -284.50977,-29.914062 c 0.4337,-9.970839 2.94175,-18.004644 7.26563,-23.890626 4.32388,-5.885981 10.53649,-9.45837 17.42187,-10.351562 a 3.9977085,3.9977085 0 0 1 4.50391,3.71875 c 0.55946,9.094469 8.02497,16.11508 17.13672,16.115234 9.52987,0 17.16797,-7.638099 17.16797,-17.167968 a 3.9977085,3.9977085 0 0 1 0,-0.01563 c 0,-0.782502 -0.0528,-1.565468 -0.16016,-2.339844 a 3.9977085,3.9977085 0 0 1 -0.006,-0.04687 c -0.43177,-3.405778 -1.8668,-8.756302 -5.39062,-13.134766 -3.52383,-4.378463 -8.97967,-8.065434 -18.85547,-8.570312 A 3.9977085,3.9977085 0 0 1 -246,-85.667969 c -8.41664,-1.669341 -25.42433,5.378633 -36.53711,21.185547 a 3.9977085,3.9977085 0 0 1 -7.08984,-1.125 c -3.48659,-11.342221 -6.96372,-19.9392 -10.2461,-25.671875 -2.44187,-4.264735 -4.76993,-6.730837 -6.50976,-7.898437 z m -231.54102,52.269531 v 25.771484 c 12.56474,-7.821561 23.25415,-10.951503 35.15235,-12.564453 a 3.9977085,3.9977085 0 0 1 4.53515,3.960938 V 70.800781 c -2e-5,27.231491 -7.77018,65.797789 -38.49414,102.878909 15.78667,-10.27797 28.32163,-20.61089 37.25,-32.51563 13.324,-17.76569 19.70508,-39.16844 19.70508,-70.363279 V -29.740234 -46.908203 h -22.45899 z m 80.03516,179.916013 c -9.52899,22.06434 -26.72507,40.31118 -53.41211,55.02539 27.36279,-1.39262 42.20194,-5.96036 50.68164,-11.44726 10.18579,-6.59085 12.28081,-14.7142 18.02734,-23.33399 a 3.9977085,3.9977085 0 0 1 3.32618,-1.78125 h 193.14648 c 8.91774,0 14.17457,-5.34443 17.74023,-11.28711 1.54288,-2.57141 2.57915,-5.07062 3.33789,-7.17578 z"
         id="path89"
         style="fill:#5599ff;fill-opacity:1;stroke:#000000;stroke-width:1.5;stroke-linecap:butt;stroke-linejoin:miter;stroke-miterlimit:4;stroke-dasharray:none;stroke-opacity:1"
         sodipodi:type="inkscape:offset"
         inkscape:radius="-3.9973087"
         inkscape:original="M -512.81836 -103.82422 A 15.875 15.875 0 0 0 -528.69336 -87.949219 A 15.875 15.875 0 0 0 -512.81836 -72.074219 A 15.875 15.875 0 0 0 -496.94336 -87.949219 A 15.875 15.875 0 0 0 -512.81836 -103.82422 z M -455.14062 -103.82422 L -455.14062 -77.365234 L -455.14062 -24.449219 L -428.68164 -24.449219 C -344.01497 -29.740886 -386.34895 39.050784 -455.14062 102.55078 L -423.39062 102.55078 C -370.47395 54.925786 -349.3073 23.175784 -344.01562 7.3007812 C -328.14062 -50.907554 -365.18164 -50.90625 -428.68164 -50.90625 L -428.68164 -77.365234 L -354.59766 -82.65625 L -328.14062 -103.82422 L -428.68164 -103.82422 L -455.14062 -103.82422 z M -306.97266 -103.82422 L -333.43164 -82.65625 C -301.68164 -66.78125 -307.36989 -23.890667 -312.26562 -3.28125 C -321.79658 36.840838 -359.5943 74.143413 -396.93164 102.55078 L -296.39062 102.55078 C -285.30762 63.093114 -283.04512 28.41311 -280.51562 -29.740234 C -279.69849 -48.526529 -271.08948 -58.663154 -259.30859 -60.191406 C -258.62181 -49.02732 -249.36682 -40.324409 -238.18164 -40.324219 C -226.49161 -40.324219 -217.01562 -49.800207 -217.01562 -61.490234 C -217.0156 -61.495134 -217.01562 -61.500919 -217.01562 -61.505859 C -217.01562 -62.471866 -217.08214 -63.437674 -217.21484 -64.394531 C -218.21452 -72.279841 -223.52252 -88.480473 -245.22266 -89.589844 C -256.29077 -91.785073 -273.96683 -83.622302 -285.80664 -66.78125 C -292.8821 -89.798429 -299.93681 -102.04292 -306.97266 -103.82422 z M -541.92188 -50.90625 L -541.92188 -13.865234 C -526.82772 -24.735016 -515.79525 -27.901888 -502.23438 -29.740234 L -502.23438 70.800781 C -502.2344 102.55079 -512.81836 150.17644 -560.44336 192.50977 C -502.23502 160.75977 -475.77734 134.30079 -475.77734 70.800781 L -475.77734 -29.740234 L -475.77734 -50.90625 L -502.23438 -50.90625 L -541.92188 -50.90625 z M -460.43164 129.00977 C -471.01498 155.4681 -492.4395 176.33867 -529.22266 192.50977 C -449.84766 192.50977 -449.84897 171.34375 -439.26562 155.46875 L -246.11914 155.46875 C -224.95248 155.46875 -219.66016 129.00977 -219.66016 129.00977 L -460.43164 129.00977 z "
         transform="translate(-701.55211,-8.1452676)" />
    </g>
  </g>
</svg>
